<svg xmlns="http://www.w3.org/2000/svg" viewBox="0 0 561.72 224.69"><defs><style>.cls-1{fill:#87191b;stroke:#87191b;stroke-miterlimit:10;stroke-width:1.69px;}</style></defs><title>iSculpt_logo</title><g id="Layer_2" data-name="Layer 2"><g id="Layer_1-2" data-name="Layer 1"><path class="cls-1" d="M8.73,61.25a9.22,9.22,0,0,1-5.5-2.15A8.6,8.6,0,0,1,.84,53.38q0-6.45,7.89-7.88,6,0,7.88,7.88Q16.61,61.24,8.73,61.25Zm-5,116.28V78.92H13.5v98.61Z"/><path class="cls-1" d="M119.82,176.1a65.39,65.39,0,0,1-22,3.34q-39.2,0-50.42-37l9.8-3.34q8.36,30.57,40.62,30.56,18.39,0,28.91-9.07,10.74-9.33,10.75-27.22a36.05,36.05,0,0,0-12.67-28.17,52.75,52.75,0,0,0-10.27-6.93q-6.93-3.83-17.68-8.6Q76.57,80.6,69.17,73.91,56.74,63.15,56.74,45.5T69.41,17.07q12.41-11,30.58-11,30.11,0,42.52,22.43L133.2,32.6a32.37,32.37,0,0,0-11.47-11.7q-8.37-5.25-21.74-5.25-14.1,0-23.41,7.87-10,8.36-10,22,0,12.17,10.51,21.24,6,4.79,23.89,12.89a180.88,180.88,0,0,1,19.35,9.91,69.3,69.3,0,0,1,13.15,9.91q13.84,13.6,13.86,33.91Q147.3,165.83,119.82,176.1Z"/><path class="cls-1" d="M219.21,179.44q-22,0-36.55-14.56t-14.58-36.54q0-22,14.58-36.52t36.55-14.58q18.87,0,30.11,8.61V97.54l-6.21-4.06-6.7-3.58a53.42,53.42,0,0,0-17.2-3.1q-18.39,0-29.86,11.46-11.72,11.7-11.71,30.08,0,18.15,11.71,29.85t29.86,11.7a43.94,43.94,0,0,0,30.11-11.46V170.6A53.47,53.47,0,0,1,219.21,179.44Z"/><path class="cls-1" d="M326.48,168.94q-9.8,10.5-27.48,10.5-17.43,0-27-10.27t-9.56-28.64V78.92h9.8v61.61q0,14.07,6.21,21.72,6.45,7.63,20.54,7.64,27.48,0,27.48-29.36V78.92H336v61.61Q336,158.67,326.48,168.94Z"/><path class="cls-1" d="M356.83,177.53V.84h9.55V177.53Z"/><path class="cls-1" d="M474.14,164.4q-14.82,14.81-36.32,14.8-24.61,0-40.61-20.06v64.71h-9.8V78.92h9.8V97.54q15.29-20.06,40.61-20.05,21.51,0,36.08,14.56,14.82,14.81,14.81,36.29T474.14,164.4ZM467,99.22a41.21,41.21,0,0,0-70.48,29.12A41.34,41.34,0,1,0,467,99.22Z"/><path class="cls-1" d="M525.27,88.7v88.83h-9.8V88.7H502.09V78.92h13.38V35.7h9.8V78.92H548.2V88.7Z"/><path class="cls-1" d="M526.09,8.23v-1H541v1h-6.85V26.6h-1.2V8.23Z"/><path class="cls-1" d="M542.3,7.19H544l7.59,18.08h0l7.51-18.08h1.71V26.6h-1.19V8.66h-.06l-7.4,17.94H551L543.55,8.66h-.06V26.6H542.3Z"/></g></g></svg>